<svg width="32" height="32" viewBox="0 0 32 32" fill="none" xmlns="http://www.w3.org/2000/svg">
<path d="M0 8C0 3.58172 3.58172 0 8 0H24C28.4183 0 32 3.58172 32 8V24C32 28.4183 28.4183 32 24 32H8C3.58172 32 0 28.4183 0 24V8Z" fill="#F04D56" fill-opacity="0.08"/>
<path d="M22.6667 16C22.6667 16 20.6667 20 16 20C11.3334 20 9.33337 16 9.33337 16C9.33337 16 11.3334 12 16 12C20.6667 12 22.6667 16 22.6667 16Z" stroke="#F04D56" stroke-linecap="round"/>
<circle cx="16" cy="16" r="2" stroke="#F04D56" stroke-linecap="round"/>
</svg>
