<svg width="14" height="14" viewBox="0 0 14 14" fill="none" xmlns="http://www.w3.org/2000/svg">
<path fill-rule="evenodd" clip-rule="evenodd" d="M2 6.33333C2 3.9401 3.9401 2 6.33333 2C8.72657 2 10.6667 3.9401 10.6667 6.33333C10.6667 7.49289 10.2112 8.54606 9.46947 9.32374C9.44306 9.34524 9.4175 9.36829 9.39289 9.39289C9.36829 9.4175 9.34524 9.44306 9.32374 9.46947C8.54606 10.2112 7.49289 10.6667 6.33333 10.6667C3.9401 10.6667 2 8.72657 2 6.33333ZM10.0487 11.4629C9.00508 12.2202 7.72135 12.6667 6.33333 12.6667C2.83553 12.6667 0 9.83114 0 6.33333C0 2.83553 2.83553 0 6.33333 0C9.83114 0 12.6667 2.83553 12.6667 6.33333C12.6667 7.72135 12.2202 9.00508 11.4629 10.0487L13.7071 12.2929C14.0976 12.6834 14.0976 13.3166 13.7071 13.7071C13.3166 14.0976 12.6834 14.0976 12.2929 13.7071L10.0487 11.4629Z" fill="black" fill-opacity="0.35"/>
</svg>
