<svg width="16" height="18" viewBox="0 0 16 18" fill="none" xmlns="http://www.w3.org/2000/svg">
<path d="M13.8333 17.3333H2.16667C1.24619 17.3333 0.5 16.5871 0.5 15.6667V3.99999C0.5 3.07952 1.24619 2.33332 2.16667 2.33332H3.83333V0.666656H5.5V2.33332H10.5V0.666656H12.1667V2.33332H13.8333C14.7538 2.33332 15.5 3.07952 15.5 3.99999V15.6667C15.5 16.5871 14.7538 17.3333 13.8333 17.3333ZM2.16667 7.33332V15.6667H13.8333V7.33332H2.16667ZM2.16667 3.99999V5.66666H13.8333V3.99999H2.16667ZM12.1667 14H10.5V12.3333H12.1667V14ZM8.83333 14H7.16667V12.3333H8.83333V14ZM5.5 14H3.83333V12.3333H5.5V14ZM12.1667 10.6667H10.5V8.99999H12.1667V10.6667ZM8.83333 10.6667H7.16667V8.99999H8.83333V10.6667ZM5.5 10.6667H3.83333V8.99999H5.5V10.6667Z" fill="black" fill-opacity="0.35"/>
</svg>
